<svg width="679" height="540" viewBox="0 0 679 540" fill="none" xmlns="http://www.w3.org/2000/svg">
<g filter="url(#filter0_d_212_6)">
<path d="M18.2702 223.114C-nan -nan -nan -nan 20.054 226.069V226.069C-nan -nan -nan -nan 23.8356 229.32V229.32L25.4054 226.069V226.069C-nan -nan -nan -nan 27.1891 221.636L32.5405 214.249L37.8918 208.338V208.338C-nan -nan -nan -nan 46.8107 199.473V199.473C-nan -nan -nan -nan 55.7296 193.562L75.3512 184.697L87.8377 178.787V178.787C-nan -nan -nan -nan 96.7566 175.832H103.892V175.832C-nan -nan -nan -nan 134.216 175.832L143.135 177.309L152.054 178.787L159.189 180.264V180.264C-nan -nan -nan -nan 171.675 183.219L182.378 189.13L189.513 193.562L200.216 200.95V200.95C-nan -nan -nan -nan 216.27 215.726V215.726C-nan -nan -nan -nan 219.837 220.159H221.621H223.405H228.756H250.162H257.297V220.159C-nan -nan -nan -nan 264.432 220.159L266.216 218.681L268 217.204L276.918 209.816L287.621 200.95V200.95C-nan -nan -nan -nan 292.972 196.518L298.324 193.562L312.594 186.175V186.175C-nan -nan -nan -nan 319.729 181.742L330.432 178.787L339.351 177.309V177.309C-nan -nan -nan -nan 344.702 175.832H351.837H358.972H371.459V175.832C-nan -nan -nan -nan 382.162 175.832L401.783 180.264L412.486 186.175V186.175C-nan -nan -nan -nan 424.972 190.607L449.945 208.338V208.338C-nan -nan -nan -nan 462.432 220.159H478.486H510.594H542.702H571.242V220.159C-nan -nan -nan -nan 587.296 220.159V220.159C-nan -nan -nan -nan 592.648 221.636V221.636C-nan -nan -nan -nan 596.215 224.592L599.783 229.024V229.024C-nan -nan -nan -nan 601.567 231.979V231.979C-nan -nan -nan -nan 603.35 236.412L601.567 242.323L599.783 248.233V248.233C-nan -nan -nan -nan 597.999 252.666V252.666C-nan -nan -nan -nan 592.648 257.098V257.098C-nan -nan -nan -nan 583.729 258.576H569.458L551.621 257.098H512.378H489.188H474.918V260.053V268.919V268.919C-nan -nan -nan -nan 474.918 282.217L473.134 289.605L469.567 299.948V299.948C-nan -nan -nan -nan 465.999 308.813V308.813C-nan -nan -nan -nan 458.864 320.634V320.634C-nan -nan -nan -nan 449.945 330.977L441.026 336.887L435.293 340.687L437.459 344.275V344.275C-nan -nan -nan -nan 439.243 347.23L444.594 351.663L453.513 356.096L464.215 362.006L480.269 363.484H498.107L519.513 359.051L540.918 348.708L571.242 328.022L585.513 317.679V317.679C-nan -nan -nan -nan 599.783 305.858L615.837 286.65L624.756 273.352V273.352C-nan -nan -nan -nan 628.323 265.964V265.964C-nan -nan -nan -nan 631.891 254.143V251.188L633.675 245.278V245.278C-nan -nan -nan -nan 635.458 236.412V236.412C-nan -nan -nan -nan 637.242 234.935V230.502V203.906V195.04V195.04C-nan -nan -nan -nan 635.458 186.175L631.891 178.787L628.323 172.876L624.756 166.966V166.966C-nan -nan -nan -nan 617.621 156.623L610.485 149.235V149.235C-nan -nan -nan -nan 605.134 144.802V144.802C-nan -nan -nan -nan 596.215 141.847V141.847C-nan -nan -nan -nan 590.864 138.892V138.892C-nan -nan -nan -nan 589.08 137.415V137.415C-nan -nan -nan -nan 583.729 137.415V134.459V134.459C-nan -nan -nan -nan 583.729 131.504V131.504C-nan -nan -nan -nan 585.513 125.594V125.594C-nan -nan -nan -nan 587.296 122.639V100.475V100.475C-nan -nan -nan -nan 587.296 94.5649V94.5649C-nan -nan -nan -nan 581.945 79.7891L578.377 73.8788V73.8788C-nan -nan -nan -nan 569.458 60.5806L560.54 51.7152V51.7152C-nan -nan -nan -nan 548.053 41.3721L537.35 35.4618L526.648 31.0291L521.296 29.5515L510.594 26.5964L505.242 25.1188V25.1188C-nan -nan -nan -nan 496.324 22.1636L482.053 20.6861H471.351H457.08L442.81 22.1636L430.324 23.6412V23.6412C-nan -nan -nan -nan 424.972 23.6412L419.621 25.1188L414.27 26.5964L407.134 28.074V28.074C-nan -nan -nan -nan 387.513 33.9843L369.675 42.8497V42.8497C-nan -nan -nan -nan 362.54 47.2824V47.2824C-nan -nan -nan -nan 357.189 48.76V48.76C-nan -nan -nan -nan 351.837 53.1928V53.1928C-nan -nan -nan -nan 348.27 54.6703V54.6703C-nan -nan -nan -nan 346.486 56.1479H344.702V56.1479C-nan -nan -nan -nan 342.918 56.1479V53.1928V51.7152V51.7152C-nan -nan -nan -nan 342.918 48.76V48.76C-nan -nan -nan -nan 339.351 41.3721L333.999 33.9843V33.9843C-nan -nan -nan -nan 326.864 25.1188L314.378 16.2533V16.2533C-nan -nan -nan -nan 300.108 7.38788L284.054 2.95515V2.95515C-nan -nan -nan -nan 266.216 0L250.162 0L232.324 0V0C-nan -nan -nan -nan 223.405 0L209.135 2.95515V2.95515C-nan -nan -nan -nan 169.892 14.7758V14.7758C-nan -nan -nan -nan 105.676 50.2376L66.4323 87.177L55.7296 100.475V100.475C-nan -nan -nan -nan 37.8918 125.594V125.594C-nan -nan -nan -nan 23.6216 153.668L21.8378 161.056V161.056C-nan -nan -nan -nan 20.054 168.444L18.2702 172.876L16.4865 177.309V177.309C-nan -nan -nan -nan 14.7027 181.742V186.175V190.607V196.518V202.428V206.861V211.293V214.249V214.249C-nan -nan -nan -nan 14.7027 217.204L16.4865 220.159L18.2702 223.114V223.114Z" fill="black"/>
<path d="M103.892 260.053C-nan -nan -nan -nan 146.702 260.053V260.053C-nan -nan -nan -nan 185.946 254.143L188.671 251.878L185.946 248.233L173.459 234.935L162.756 226.069C-nan -nan -nan -nan 150.27 218.681V218.681C-nan -nan -nan -nan 137.784 214.249V214.249C-nan -nan -nan -nan 123.513 214.249V214.249H112.811C-nan -nan -nan -nan 98.5404 220.159V220.159L86.0539 226.069C-nan -nan -nan -nan 80.7026 230.502V230.502L69.9999 239.367C-nan -nan -nan -nan 64.6485 245.278V245.278C-nan -nan -nan -nan 62.8648 249.71V249.71C-nan -nan -nan -nan 61.081 252.666V252.666C-nan -nan -nan -nan 61.081 252.666L60.5056 254.334L64.6485 255.621L103.892 260.053V260.053Z" fill="black"/>
<path d="M392.864 277.784V277.784C-nan -nan -nan -nan 413.706 304.847V304.847L419.621 299.948C-nan -nan -nan -nan 423.188 294.038V294.038L426.756 288.127C-nan -nan -nan -nan 428.54 279.262V279.262L430.324 270.396C-nan -nan -nan -nan 430.324 261.531V261.531C-nan -nan -nan -nan 426.756 249.71V249.71C-nan -nan -nan -nan 417.837 237.89V237.89C-nan -nan -nan -nan 408.918 229.024V229.024L401.783 223.114C-nan -nan -nan -nan 389.297 218.681V218.681L383.945 217.204L373.243 214.249C-nan -nan -nan -nan 362.54 214.249V214.249L348.27 215.726L341.135 217.204C-nan -nan -nan -nan 330.432 223.114V223.114L319.729 229.024C-nan -nan -nan -nan 312.594 234.935V234.935C-nan -nan -nan -nan 305.459 243.8V243.8L301 251.188H301.891H307.243V251.188C-nan -nan -nan -nan 321.513 251.188L330.432 254.143L337.567 255.621L355.405 260.053V260.053C-nan -nan -nan -nan 378.594 268.919L392.864 277.784Z" fill="black"/>
<path d="M259.081 251.188H300.108H301L305.459 243.8V243.8C-nan -nan -nan -nan 312.594 234.935V234.935C-nan -nan -nan -nan 319.729 229.024L330.432 223.114V223.114C-nan -nan -nan -nan 341.135 217.204L348.27 215.726L362.54 214.249V214.249C-nan -nan -nan -nan 373.243 214.249L383.945 217.204L389.297 218.681V218.681C-nan -nan -nan -nan 401.783 223.114L408.918 229.024V229.024C-nan -nan -nan -nan 417.837 237.89V237.89C-nan -nan -nan -nan 426.756 249.71V249.71C-nan -nan -nan -nan 430.324 261.531V261.531C-nan -nan -nan -nan 430.324 270.396L428.54 279.262V279.262C-nan -nan -nan -nan 426.756 288.127L423.188 294.038V294.038C-nan -nan -nan -nan 419.621 299.948L413.706 304.847L414.27 305.858L435.293 340.687L441.026 336.887L449.945 330.977C-nan -nan -nan -nan 458.864 320.634V320.634C-nan -nan -nan -nan 465.999 308.813V308.813C-nan -nan -nan -nan 469.567 299.948V299.948L473.134 289.605L474.918 282.217C-nan -nan -nan -nan 474.918 268.919V268.919V260.053V257.098H489.188H512.378H551.621L569.458 258.576H583.729C-nan -nan -nan -nan 592.648 257.098V257.098C-nan -nan -nan -nan 597.999 252.666V252.666C-nan -nan -nan -nan 599.783 248.233V248.233L601.567 242.323L603.35 236.412C-nan -nan -nan -nan 601.567 231.979V231.979C-nan -nan -nan -nan 599.783 229.024V229.024L596.215 224.592C-nan -nan -nan -nan 592.648 221.636V221.636C-nan -nan -nan -nan 587.296 220.159V220.159C-nan -nan -nan -nan 571.242 220.159V220.159H542.702H510.594H478.486H462.432C-nan -nan -nan -nan 449.945 208.338V208.338L424.972 190.607C-nan -nan -nan -nan 412.486 186.175V186.175L401.783 180.264L382.162 175.832C-nan -nan -nan -nan 371.459 175.832V175.832H358.972H351.837H344.702C-nan -nan -nan -nan 339.351 177.309V177.309L330.432 178.787L319.729 181.742C-nan -nan -nan -nan 312.594 186.175V186.175L298.324 193.562L292.972 196.518C-nan -nan -nan -nan 287.621 200.95V200.95L276.918 209.816L268 217.204L266.216 218.681L264.432 220.159C-nan -nan -nan -nan 257.297 220.159V220.159H250.162H228.756H223.405H221.621H219.837C-nan -nan -nan -nan 216.27 215.726V215.726C-nan -nan -nan -nan 200.216 200.95V200.95L189.513 193.562L182.378 189.13L171.675 183.219C-nan -nan -nan -nan 159.189 180.264V180.264L152.054 178.787L143.135 177.309L134.216 175.832C-nan -nan -nan -nan 103.892 175.832V175.832H96.7566C-nan -nan -nan -nan 87.8377 178.787V178.787L75.3512 184.697L55.7296 193.562C-nan -nan -nan -nan 46.8107 199.473V199.473C-nan -nan -nan -nan 37.8918 208.338V208.338L32.5405 214.249L27.1891 221.636C-nan -nan -nan -nan 25.4054 226.069V226.069L23.8356 229.32V229.32C-nan -nan -nan -nan 28.9729 236.412V236.412C-nan -nan -nan -nan 60.5056 254.334V254.334L61.081 252.666C-nan -nan -nan -nan 61.081 252.666V252.666C-nan -nan -nan -nan 62.8648 249.71V249.71C-nan -nan -nan -nan 64.6485 245.278V245.278C-nan -nan -nan -nan 69.9999 239.367L80.7026 230.502V230.502C-nan -nan -nan -nan 86.0539 226.069L98.5404 220.159V220.159C-nan -nan -nan -nan 112.811 214.249H123.513V214.249C-nan -nan -nan -nan 137.784 214.249V214.249C-nan -nan -nan -nan 150.27 218.681V218.681C-nan -nan -nan -nan 162.756 226.069L173.459 234.935L185.946 248.233L188.671 251.878L216.27 251.188H259.081Z" fill="#FF0000"/>
<path d="M60.5056 254.334C-nan -nan -nan -nan 28.9729 236.412V236.412C-nan -nan -nan -nan 23.8356 229.32V229.32L21.8378 233.457L16.4865 245.278C-nan -nan -nan -nan 14.7027 254.143V254.143L12.9189 279.262C-nan -nan -nan -nan 14.7027 286.65V286.65L16.4865 295.515L20.054 305.858C-nan -nan -nan -nan 23.6216 310.291V310.291L28.081 317.679L32.5405 302.903L43.2432 277.784L52.1621 263.009C-nan -nan -nan -nan 52.1621 263.009L58.4053 260.423L60.5056 254.334V254.334Z" fill="#FF0000"/>
<path d="M319.729 409.289L330.432 397.468C-nan -nan -nan -nan 333.999 397.468V397.468C-nan -nan -nan -nan 337.567 395.99V395.99C-nan -nan -nan -nan 339.351 393.035V393.035C-nan -nan -nan -nan 344.702 388.603V388.603C-nan -nan -nan -nan 344.702 384.17V384.17C-nan -nan -nan -nan 346.486 376.782V376.782C-nan -nan -nan -nan 344.702 372.349V372.349C-nan -nan -nan -nan 341.135 366.439V366.439C-nan -nan -nan -nan 333.999 362.006V362.006C-nan -nan -nan -nan 326.864 360.529V360.529C-nan -nan -nan -nan 319.729 357.574V357.574L314.378 356.096C-nan -nan -nan -nan 309.027 356.096V356.096H305.459C-nan -nan -nan -nan 300.108 362.006V362.006L294.756 367.917C-nan -nan -nan -nan 291.189 375.304V375.304C-nan -nan -nan -nan 284.054 382.692V382.692L276.918 388.603L269.783 394.513L262.648 400.423C-nan -nan -nan -nan 255.513 403.378V403.378L244.81 406.334L230.54 409.289C-nan -nan -nan -nan 218.054 409.289V409.289H200.216C-nan -nan -nan -nan 194.865 406.334V406.334C-nan -nan -nan -nan 185.946 403.378V403.378L178.811 400.423C-nan -nan -nan -nan 171.675 400.423V400.423C-nan -nan -nan -nan 166.324 401.901V401.901C-nan -nan -nan -nan 160.973 406.334V406.334L157.405 409.289C-nan -nan -nan -nan 155.621 413.721V413.721C-nan -nan -nan -nan 155.621 418.154V418.154V424.064V428.497C-nan -nan -nan -nan 159.189 431.452V431.452C-nan -nan -nan -nan 164.54 434.407V434.407L171.675 437.363L177.027 440.318C-nan -nan -nan -nan 184.162 441.795V441.795L189.513 443.273L198.432 444.751L207.351 446.228C-nan -nan -nan -nan 214.486 446.228V446.228H226.973H239.459H251.946C-nan -nan -nan -nan 264.432 443.273V443.273L273.351 440.318C-nan -nan -nan -nan 284.054 434.407V434.407L291.189 429.975L300.108 425.542L309.027 419.632C-nan -nan -nan -nan 319.729 409.289V409.289Z" fill="black"/>
<path d="M59.2972 260.053C-nan -nan -nan -nan 64.6485 255.621V255.621L60.5056 254.334L58.4053 260.423L59.2972 260.053Z" fill="#564734"/>
<path fill-rule="evenodd" clip-rule="evenodd" d="M405.351 356.096L371.459 362.006H383.945C-nan -nan -nan -nan 405.351 356.096V356.096ZM334.537 360.569L330.432 359.392V359.392C-nan -nan -nan -nan 333.999 360.529L334.537 360.569Z" fill="#FF0000"/>
<path d="M300.108 251.188H259.081H216.27L188.671 251.878L189.513 255.621L191.297 261.531V261.531C-nan -nan -nan -nan 193.081 268.919V268.919C-nan -nan -nan -nan 193.081 274.829L189.513 286.65V286.65C-nan -nan -nan -nan 185.946 295.515L178.811 302.903V302.903C-nan -nan -nan -nan 168.108 311.769V311.769C-nan -nan -nan -nan 153.838 319.156V319.156C-nan -nan -nan -nan 139.567 323.589H128.865V323.589C-nan -nan -nan -nan 111.027 323.589V323.589C-nan -nan -nan -nan 98.5404 320.634L89.6215 316.201L82.4864 311.769V311.769C-nan -nan -nan -nan 69.9999 302.903V302.903C-nan -nan -nan -nan 61.081 289.605V289.605C-nan -nan -nan -nan 57.5134 280.74V268.919V268.919C-nan -nan -nan -nan 58.4053 260.423V260.423L52.1621 263.009C-nan -nan -nan -nan 52.1621 263.009L43.2432 277.784L32.5405 302.903L28.081 317.679L30.7567 322.112C-nan -nan -nan -nan 36.1081 326.544V326.544L45.027 335.41L53.9459 342.798L66.4323 350.186L80.7026 356.096L94.9728 360.529L112.811 363.484H127.081L143.135 362.006L180.594 353.141L205.567 335.41L219.837 319.156L228.756 305.858L232.324 296.993L235.892 286.65C-nan -nan -nan -nan 235.892 279.262V279.262V270.396V263.009V260.053V258.576V257.098C-nan -nan -nan -nan 239.459 257.098V257.098H244.81H250.162H251.946C-nan -nan -nan -nan 251.946 264.486V264.486V271.874V286.65L253.729 291.083L257.297 301.426L266.216 316.201L276.918 328.022L291.189 339.843L310.81 353.141C-nan -nan -nan -nan 330.432 359.392V359.392L334.537 360.569L340.237 360.998L343.711 361.26L353.621 362.006H371.459L405.351 356.096L416.053 350.186L424.972 345.753L432.107 342.798C-nan -nan -nan -nan 435.293 340.687V340.687L414.27 305.858L413.706 304.847L412.486 305.858V305.858C-nan -nan -nan -nan 405.351 311.769L394.648 316.201V316.201C-nan -nan -nan -nan 382.162 322.112L366.108 323.589H355.405V323.589C-nan -nan -nan -nan 344.702 323.589V323.589C-nan -nan -nan -nan 333.999 319.156L326.864 314.724V314.724C-nan -nan -nan -nan 316.162 308.813V308.813C-nan -nan -nan -nan 309.027 302.903V302.903C-nan -nan -nan -nan 301.891 294.038V294.038C-nan -nan -nan -nan 296.54 283.695V283.695C-nan -nan -nan -nan 294.756 270.396V270.396C-nan -nan -nan -nan 298.324 255.621L301 251.188H300.108Z" fill="#FF0000"/>
<path fill-rule="evenodd" clip-rule="evenodd" d="M371.459 362.006H383.945C-nan -nan -nan -nan 405.351 356.096V356.096L371.459 362.006ZM435.293 340.687L437.459 344.275V344.275C-nan -nan -nan -nan 439.243 347.23L444.594 351.663L435.293 340.687ZM498.107 363.484L519.513 359.051L528.686 354.618L517.729 359.051C-nan -nan -nan -nan 509.489 360.913V360.913L498.107 363.484ZM534.602 351.76L540.918 348.708L555.188 338.973L534.602 351.76ZM567.675 330.456L571.242 328.022L585.513 317.679V317.679C-nan -nan -nan -nan 599.783 305.858L615.837 286.65L624.756 273.352V273.352C-nan -nan -nan -nan 628.323 265.964V265.964C-nan -nan -nan -nan 631.891 254.143V251.188L615.837 286.65L567.675 330.456ZM476.702 511.241L467.783 515.674L457.08 521.584C457.08 521.584 426.756 537.838 476.702 511.241ZM298.324 530.45L285.837 528.972H275.135L298.324 530.45ZM4.97297 458.049L4 447.706V449.183L4.97297 458.049ZM5.78378 410.766L11.1351 393.035L12.8836 378.552L5.78378 410.766ZM13.6564 375.51L16.4865 364.961L19.3405 353.141L20.054 350.186L25.2182 328.797L21.8378 341.32L19.3405 353.141L13.6564 375.51ZM80.7026 356.096L94.9728 360.529L112.811 363.484H127.081L143.135 362.006L180.594 353.141L163.146 356.732L159.953 357.574L143.135 362.006L112.811 363.484L80.7026 356.096ZM210.245 330.082L219.837 319.156L224.297 312.507L210.245 330.082ZM232.324 296.993L235.892 286.65C-nan -nan -nan -nan 235.892 279.262V279.262V270.396L232.324 296.993ZM251.946 277.784V286.65L253.729 291.083L257.297 301.426L260.775 307.188L266.216 316.201L276.918 328.022L284.913 334.644L260.775 307.188L251.946 277.784ZM291.189 339.843L310.81 353.141C-nan -nan -nan -nan 330.432 359.392V359.392L291.189 339.843Z" fill="#564734"/>
<path fill-rule="evenodd" clip-rule="evenodd" d="M631.891 251.188V254.143C-nan -nan -nan -nan 628.323 265.964V265.964C-nan -nan -nan -nan 624.756 273.352V273.352L615.837 286.65L599.783 305.858C-nan -nan -nan -nan 585.513 317.679V317.679L571.242 328.022L567.675 330.456L555.188 338.973L540.918 348.708L534.602 351.76L528.686 354.618L519.513 359.051L498.107 363.484H490.972H480.269L464.215 362.006L458.312 358.746L453.513 356.096L444.594 351.663L439.243 347.23C-nan -nan -nan -nan 437.459 344.275V344.275L435.293 340.687V340.687C-nan -nan -nan -nan 432.107 342.798L424.972 345.753L416.053 350.186L405.351 356.096V356.096C-nan -nan -nan -nan 383.945 362.006H371.459H353.621L343.711 361.26L340.237 360.998L334.537 360.569L333.999 360.529C-nan -nan -nan -nan 330.432 359.392V359.392V359.392C-nan -nan -nan -nan 310.81 353.141L291.189 339.843L284.913 334.644L276.918 328.022L266.216 316.201L260.775 307.188L257.297 301.426L253.729 291.083L251.946 286.65V277.784V271.874V264.486V264.486C-nan -nan -nan -nan 251.946 257.098H250.162H244.81H239.459V257.098C-nan -nan -nan -nan 235.892 257.098V258.576V260.053V263.009V270.396V279.262V279.262C-nan -nan -nan -nan 235.892 286.65L232.324 296.993L228.756 305.858L224.297 312.507L219.837 319.156L210.245 330.082L205.567 335.41L180.594 353.141L143.135 362.006L127.081 363.484H112.811L94.9728 360.529L80.7026 356.096L72.3599 352.641L66.4323 350.186L61.081 347.019L53.9459 342.798L45.027 335.41L41.0586 331.465L36.1081 326.544V326.544C-nan -nan -nan -nan 30.7567 322.112L28.081 317.679L27.1891 320.634L25.2182 328.797L20.054 350.186L19.3405 353.141L16.4865 364.961L13.6564 375.51L12.8836 378.552L11.1351 393.035L5.78378 410.766L4 429.975V447.706L4.97297 458.049V458.049C-nan -nan -nan -nan 5.78378 465.437V465.437C-nan -nan -nan -nan 11.1351 480.212V480.212C-nan -nan -nan -nan 18.2702 490.555V490.555C-nan -nan -nan -nan 28.9729 500.898V500.898C-nan -nan -nan -nan 39.6756 508.286V508.286C-nan -nan -nan -nan 52.1621 514.197L68.2161 518.629L86.0539 521.584L105.676 523.062L127.081 523.517L148.486 523.062L175.243 524.54H202L251.946 527.495L275.135 528.972H285.837L298.324 530.45H323.297L349.289 531.716L371.459 531.928H383.945H403.567L419.621 531.716L437.459 528.972L457.08 521.584L467.783 515.674L476.702 511.241L483.837 503.854L490.972 496.466V496.466C-nan -nan -nan -nan 499.891 486.123L505.242 475.78L511.486 465.437L517.729 455.094L523.972 444.751L529.323 435.885L531.999 431.452H539.134H551.621L562.323 429.975L569.458 428.497L578.377 425.542L587.296 422.587L596.215 419.632L605.134 415.199V415.199C-nan -nan -nan -nan 614.053 410.766V410.766C-nan -nan -nan -nan 619.404 406.334V406.334C-nan -nan -nan -nan 630.107 400.423L639.026 393.035V393.035C-nan -nan -nan -nan 647.945 385.647L655.08 376.782L662.215 366.439L669.35 353.141V353.141C-nan -nan -nan -nan 672.918 344.275V344.275C-nan -nan -nan -nan 674.702 332.455V326.544V319.156V311.769V304.381V304.381C-nan -nan -nan -nan 674.702 298.47V298.47C-nan -nan -nan -nan 672.918 295.515L669.35 283.695L668.28 282.217L663.999 276.307L660.431 270.396L653.296 264.486L644.377 258.576L631.891 251.188ZM333.999 397.468C-nan -nan -nan -nan 330.432 397.468L319.729 409.289V409.289C-nan -nan -nan -nan 309.027 419.632L300.108 425.542L291.189 429.975L284.054 434.407V434.407C-nan -nan -nan -nan 273.351 440.318L264.432 443.273V443.273C-nan -nan -nan -nan 251.946 446.228H239.459H226.973H214.486V446.228C-nan -nan -nan -nan 207.351 446.228L198.432 444.751L189.513 443.273L184.162 441.795V441.795C-nan -nan -nan -nan 177.027 440.318L171.675 437.363L164.54 434.407V434.407C-nan -nan -nan -nan 159.189 431.452V431.452C-nan -nan -nan -nan 155.621 428.497V424.064V418.154V418.154C-nan -nan -nan -nan 155.621 413.721V413.721C-nan -nan -nan -nan 157.405 409.289L160.973 406.334V406.334C-nan -nan -nan -nan 166.324 401.901V401.901C-nan -nan -nan -nan 171.675 400.423V400.423C-nan -nan -nan -nan 178.811 400.423L185.946 403.378V403.378C-nan -nan -nan -nan 194.865 406.334V406.334C-nan -nan -nan -nan 200.216 409.289H218.054V409.289C-nan -nan -nan -nan 230.54 409.289L244.81 406.334L255.513 403.378V403.378C-nan -nan -nan -nan 262.648 400.423L269.783 394.513L276.918 388.603L284.054 382.692V382.692C-nan -nan -nan -nan 291.189 375.304V375.304C-nan -nan -nan -nan 294.756 367.917L300.108 362.006V362.006C-nan -nan -nan -nan 305.459 356.096H309.027V356.096C-nan -nan -nan -nan 314.378 356.096L319.729 357.574V357.574C-nan -nan -nan -nan 326.864 360.529V360.529C-nan -nan -nan -nan 333.999 362.006V362.006C-nan -nan -nan -nan 341.135 366.439V366.439C-nan -nan -nan -nan 344.702 372.349V372.349C-nan -nan -nan -nan 346.486 376.782V376.782C-nan -nan -nan -nan 344.702 384.17V384.17C-nan -nan -nan -nan 344.702 388.603V388.603C-nan -nan -nan -nan 339.351 393.035V393.035C-nan -nan -nan -nan 337.567 395.99V395.99C-nan -nan -nan -nan 333.999 397.468V397.468Z" fill="#493729"/>
<path d="M413.706 304.847C-nan -nan -nan -nan 392.864 277.784V277.784L378.594 268.919C-nan -nan -nan -nan 355.405 260.053V260.053L337.567 255.621L330.432 254.143L321.513 251.188C-nan -nan -nan -nan 307.243 251.188V251.188H301.891H301L298.324 255.621C-nan -nan -nan -nan 294.756 270.396V270.396C-nan -nan -nan -nan 296.54 283.695V283.695C-nan -nan -nan -nan 301.891 294.038V294.038C-nan -nan -nan -nan 309.027 302.903V302.903C-nan -nan -nan -nan 316.162 308.813V308.813C-nan -nan -nan -nan 326.864 314.724V314.724L333.999 319.156C-nan -nan -nan -nan 344.702 323.589V323.589C-nan -nan -nan -nan 355.405 323.589V323.589H366.108L382.162 322.112C-nan -nan -nan -nan 394.648 316.201V316.201L405.351 311.769C-nan -nan -nan -nan 412.486 305.858V305.858L413.706 304.847V304.847Z" fill="#493729"/>
<path d="M185.946 254.143C-nan -nan -nan -nan 146.702 260.053V260.053C-nan -nan -nan -nan 103.892 260.053V260.053L64.6485 255.621V255.621C-nan -nan -nan -nan 59.2972 260.053L58.4053 260.423V260.423C-nan -nan -nan -nan 57.5134 268.919V268.919V280.74C-nan -nan -nan -nan 61.081 289.605V289.605C-nan -nan -nan -nan 69.9999 302.903V302.903C-nan -nan -nan -nan 82.4864 311.769V311.769L89.6215 316.201L98.5404 320.634C-nan -nan -nan -nan 111.027 323.589V323.589C-nan -nan -nan -nan 128.865 323.589V323.589H139.567C-nan -nan -nan -nan 153.838 319.156V319.156C-nan -nan -nan -nan 168.108 311.769V311.769C-nan -nan -nan -nan 178.811 302.903V302.903L185.946 295.515C-nan -nan -nan -nan 189.513 286.65V286.65L193.081 274.829C-nan -nan -nan -nan 193.081 268.919V268.919C-nan -nan -nan -nan 191.297 261.531V261.531L189.513 255.621L188.671 251.878L185.946 254.143Z" fill="#493729"/>
</g>
<defs>
<filter id="filter0_d_212_6" x="0" y="0" width="678.702" height="539.928" filterUnits="userSpaceOnUse" color-interpolation-filters="sRGB">
<feFlood flood-opacity="0" result="BackgroundImageFix"/>
<feColorMatrix in="SourceAlpha" type="matrix" values="0 0 0 0 0 0 0 0 0 0 0 0 0 0 0 0 0 0 127 0" result="hardAlpha"/>
<feOffset dy="4"/>
<feGaussianBlur stdDeviation="2"/>
<feComposite in2="hardAlpha" operator="out"/>
<feColorMatrix type="matrix" values="0 0 0 0 0 0 0 0 0 0 0 0 0 0 0 0 0 0 0.25 0"/>
<feBlend mode="normal" in2="BackgroundImageFix" result="effect1_dropShadow_212_6"/>
<feBlend mode="normal" in="SourceGraphic" in2="effect1_dropShadow_212_6" result="shape"/>
</filter>
</defs>
</svg>
