<svg id="Calque_1" data-name="Calque 1" xmlns="http://www.w3.org/2000/svg" viewBox="0 0 595.28 841.89"><defs><style>.cls-1{fill:#564735;}.cls-2{fill:#020202;}.cls-3{fill:#cf0e14;}.cls-4{fill:#120407;}.cls-5{fill:#efede8;}.cls-6{fill:#f90203;}.cls-7{fill:#1d1810;}.cls-8{fill:#7c3623;}.cls-9{fill:#f40505;}.cls-10{fill:#af0f16;}.cls-11{fill:#e9090b;}.cls-12{fill:#060307;}.cls-13{fill:#3e0304;}.cls-14{fill:#fa0203;}.cls-15{fill:#564633;}</style></defs><path class="cls-1" d="M147.42,460.83a20.52,20.52,0,0,0,1.33-6.89c.44-1.2.88-2.41,1.33-3.61.88,1.14,2.69,1.57,2.67,3.42,0,1.32-.25,2.68.75,3.82,5.62,6.39,12.46,11.51,19.4,16.14,6.78,4.53,15.14,5.08,23.35,4.24l3,0c2.69,2.94,5.51,2.92,7.94-.07h0c3.42-.72,7.47,2.19,10.3-1.81,2-.63,4.91,1.27,6.09-2a5.53,5.53,0,0,0,6-3.81c9.07-2.34,14.22-9.55,19.87-16.11.43-.5.17-1.6.24-2.42,3.23-3.44,5.52-7.35,6.05-12.14a50.65,50.65,0,0,0,4.13-23.15c-.13-2.68-.56-5.31,3.78-5.41s4.47,2.32,4.31,5.42A49.07,49.07,0,0,0,272,439.62a22,22,0,0,0,6.89,13.18,2.2,2.2,0,0,0,.29.94c1.57,4.18,4.16,7.29,8.75,8.29,2.74,3.51,5.14,7.46,10.27,7.82l1.93.28-.05,1.68c-5.43,1.19-8,5.23-9.72,10A36.26,36.26,0,0,1,282.66,494c-10.66,11.73-28.58,18-48.28,8.69-7.95-3.76-14.25-1.49-17,5.83-2.95,7.77-.73,13,7.4,16.7,29.93,13.73,61,5.59,80.57-20.61,1.83-2.46,3.56-4.84,6.35-6.28,4.45-2.3,5.32-6.47,5.84-11,.43-3.71-2.17-6.21-3.21-9.32,2,.11,4.19-.71,5.82.74a4.84,4.84,0,0,0,5.14,1.06c7.74-3.39,16.33-.78,24.15-3.77,2.32-.88,3.36-1.77,3.42-4.05,1.52-.33,3.77.59,3.87-2.23l7.82-5.9,1.27,1.06a24.79,24.79,0,0,0,9,8.4c12.69,7.14,25.41,4.9,37.49-1,15.73-7.71,28-19.83,39.1-33.21,7.68-9.28,12.58-20.07,16.84-31.19,4.65,1.76,8.16,5.16,11.86,8.28,5.71,6.47,8.12,14.55,11,22.4v21.21c-2.64,4.37-3.15,9.5-5,14.16l-2.92,6.07a.73.73,0,0,0-.31.78L475.67,492a82.54,82.54,0,0,1-42.18,27.28,12.75,12.75,0,0,0-6,1.18l-7,.79c-3.35-.1-6.71,0-10.05-.34-2.87-.25-3.58,1.07-3.25,3.55-.52,2.33-1,4.65-1.55,7q-1.11,4.62-2.23,9.24c-2.53,6.77-4.63,13.72-8.38,20L388.16,570l-1.05,1-10.74,7.68c-14.61,7.29-30.22,6.81-45.92,6.12-31.58-1.39-63.18-2.54-94.77-4-17.63-.8-35.29-.93-52.89-2.58-12.39-1.16-23.65-4.85-33-13.38a7.32,7.32,0,0,0-2.95-3.39c-9.8-13.13-10.26-28.16-8.94-43.56.16-1.84.34-3.68.51-5.52l1.45-10.19.93-5.95a1.89,1.89,0,0,0,.5-2.09l.31-3a8,8,0,0,0,.92-5.06l.33-2.41c1.74-5.14,2.37-10.49,3.18-15.81l.55-3A6.61,6.61,0,0,0,147.42,460.83Z"/><path class="cls-2" d="M468.26,408c-4.26,11.12-9.16,21.91-16.84,31.19-11.07,13.38-23.37,25.5-39.1,33.21-12.08,5.93-24.8,8.17-37.49,1a24.79,24.79,0,0,1-9-8.4c14.18-10.2,19.22-25.09,21.3-41.5,0-1,.06-2,.08-3,4.77-2.44,6.36.17,7.25,5.63-.69-9.69,4.14-8.59,9.5-6.69a8.08,8.08,0,0,0,2.51,0c7.06,0,14.14-.31,21.18.11,5,.3,6.77-1.46,5.94-6.22,2.32,0,4.74.38,6.94-.12,4-.92,8.85-1.2,9.06-7.11a1.06,1.06,0,0,1,.31-.74c3-3.17,5.4-6.23,2.44-11-.95-1.54-2.31-3.21-2.57-5.23-.62-2.59,1.68-6.64-1.47-7.59-3.45-1.05-6.77-3.46-10.83-2.56-3.09.69-4.23-1.05-3.86-4.38,3.37.91,7-.69,10.17,1.76,1.26,1,2.87.71,4.36.51a1.62,1.62,0,0,0,1.48-1.7c0-.89-.24-1.9-1.16-1.94-5-.22-10-.79-14.85,1.37-18.64-.19-37.31,2-56.93-1.81,2.2,2.95,4.11,1.8,5.57,2.43,2.18.92,2.44,2,.84,3.82-3-.53-5.6.47-8.07,2,0-.64-.05-1.27-.07-1.9.76-4-3.33-6.57-8.1-5.09v0c-.37-3-1-5.77-5.11-4.05a2.25,2.25,0,0,1-.85-.2c-.52-5.2-4.3-5.08-8.09-4.94h0c-3.44-4.64,1.89-3.67,4.22-5.28-4.57-1.47-8.66-.64-12.55-2.28-1.73-.73-6.5-2.49-8.88,1.34l-2.95,0c-3.14-2.71-15.9-2.6-20.25.18h0c-1.7-.09-4.3-2.05-4,1.94l-2,.09c-1-1.39-2-.48-3,.1-6.06,3.63-6.06,3.63-11.15-2.11,1.82-.25,3.86.57,6.28-1.29-2.92-.59-5.07-2-6.28,1.29-1.43.94-2.59-3.32-3.81-.39-.68,1.63-.7,3.56,2.09,4.62,3.66,1.39,3.2,4.08,0,5.5-2.25,1-2.28,2.48-2.45,4.26-2,.05-4.08.42-6,.09-4.33-.73-7.77,1.3-9.13,4.65-1.5,3.7-3.8,3.37-6.62,3.55-3.23.2-6.7-1-9.69,1.42,5,.54,10,.46,15,.59,1.62,0,3.93-1,4.45,1.86-4.7,0-9.45-.31-14.1.2-6,.68-9.14-1.5-10.3-7.51-.35-1.81-1.32-5.18-4.33-4.46-2.65.63-4.93-.54-7.39-.37-.27-1.67-1.85-2.32-2.71-3.53-.46-.65-1.36-1.16-.43-2.06.74-.7,3.52-.15,1.84-2.27-1.47-1.86-3.18-5.15-5.81-3.91-3.94,1.85-6.81-.53-10.17-1-3-.41-5.77-3.16-9.11-1.27l-2-.05c-.4-2.39-2.34-2.17-3.84-1.9-4.11.74-8.73-2.06-12.38,1.75-2.43.93-3.94-1.25-6-1.75-5.19,2.73-11.16,1.56-17,3,3.62.68,5.39,1.7,2.76,4.91l-.09.08c-5,.13-9.56,1.07-11.85,6.3l0,0c-1.48-.14-2.16.54-2.09,2l0,0c-2.43,0-5.2-.91-7.09.53-.68.52.64,3.65,1,5.59l0,0c-2.46-.05-2.21,1.61-2,3.22a.81.81,0,0,1-.18.7c-3.26-1.69-5.77-.42-8,2-3.52-9-2.5-18.11-.56-27.11,5.21-24.22,16.24-45.59,32.31-64.4.65-.75,1.23-1.56,1.85-2.34a12,12,0,0,0,3.77-4.12c14.29-13.75,30.12-25.22,48.61-32.72,14.87-6,30.15-9.45,46.26-6.69,18.51,3.16,31.79,13.08,38.51,30.86,1.41,3.72,2.45,3.49,5.37,1.6,16.86-10.94,34.84-19.13,55.3-19.8,25.2-.81,46.94,6.24,60.71,29.19a51.9,51.9,0,0,1,6.24,39.33c-.42,1.87-1.39,3.6,1.2,5.16,23.25,14.1,29.81,35.47,26.24,61.13-.37,2.66-.86,5.3-1.29,7.95C468.73,404.72,467.85,406.21,468.26,408ZM367.9,368.41c.89-.12.92-.81.92-1.46s0-1.43-.92-1.43-.91.78-.92,1.43S367,368.28,367.9,368.41Zm-113.77,5.85c.28.12.62.4.82.32s.26-.52.39-.8c-.28-.12-.63-.4-.82-.32S254.25,374,254.13,374.26Zm-104.83,0a1.5,1.5,0,0,0,.13-.43s-.23-.09-.36-.13a1.36,1.36,0,0,0-.13.42C149,374.18,149.17,374.22,149.3,374.27Z"/><path class="cls-3" d="M152.75,453.75c0-1.85-1.79-2.28-2.68-3.41a1.48,1.48,0,0,0-.43-.62,1.58,1.58,0,0,0-.3-2q-3.3-9.13-6.62-18.28v0a174.61,174.61,0,0,1,.13-24c1.84-4.53,4.27-8.88,4.16-14,.84-.1,1.58-.35,1.83-1.28l1.8-.08.09,1.07-.08,2a9.8,9.8,0,0,0-2,6.05c-3,3.52-3.94,7.7-4,12.17-.37,10.77,0,21.28,5.47,31.16,1.9,3.45,4.81,6.8,4.62,11.24Z"/><path class="cls-4" d="M148.84,390.18c-.25.93-1,1.18-1.83,1.28-.94-2.06-2.43-3.92-2.31-6.36,2.22-2.44,4.73-3.71,8-2l.06,2v0C149.94,385.65,150.37,388.67,148.84,390.18Z"/><path class="cls-5" d="M147,453.32c-.14.07-.28.21-.4.2s-.24-.17-.36-.27Z"/><path class="cls-6" d="M148.65,399.19a9.8,9.8,0,0,1,2-6.05c1.59.25,3.76-.66,4.1,2.07v6.05c-.79.74-3.16,2.07-.8,2.51,5.91,1.09,6.39,5.23,6.85,9.74.15,1.58-.51,3.55,2,3.92,1,3.32-2.13,7.45,2,10.16a52.76,52.76,0,0,1,0,6c-.3,3.09,1,4.34,4,4.1.17,5.07,4.51,9.35,10.16,10h0c.91,3.07,3,4.33,6.13,4l0,0c.34,2.91,2.53,1.9,4.2,2l7.91.05,12.11,0c3.21.8,5.88-.7,8.47-2.14,8.25-4.58,15.62-10,17.88-20,2.46-3,3.29-6.64,4-10.42,1.12-6.23-2.89-11.77-2.08-17.9-.17-1.6.76-3.75-2-4.07h0a1.88,1.88,0,0,1,2-2,1.85,1.85,0,0,0,1.94-2.21c-.05-.65-.28-1.44-1-1.28-.39.08-.61.95-.91,1.47h-4c-1.9-3.07-4.1-5.74-8-6.1-.89-7-2-8.05-8.73-8.05l-3.47,0-2,0c-.37-3,.79-4.51,3.91-4s5.87-1.27,7.51-3,2-1.46,4-1.62c4.67-.36,8.21-.31,10.41,4.41.17.37,1.58.15,2.41.2-1.95,4.7,3.93,6.22,4.18,10-1.28.34-2.83-.59-3.76,1.39,1.54.74,2.76,1.14,3.76-1.39,1.28,0,2.67,0,4.05,0,2.09.88,3.82,2.31,6.43,2.19,6.88-.3,13.78-.16,20.67-.19l5,.05c2.87-1.81,5.88-3.43,8.11-6.1l0-6c.32-.07.84,0,.95-.24,3.15-5.61,9.59-2.4,13.83-5.12.62-.4,1,.43,1.35,1a8.58,8.58,0,0,0,8.13,4.3c3.05-.08,5.14,1,6.05,4l-4,.07c-6.86-1.36-11.48.94-13.18,8-2,2.49-5.5,4-5.19,8-1.67.06-2.1,2.33-3.89,2.18l-.54-1.21c-1.18.78-1.36,2-1.46,3.26-.34,3.84-.27,7.56-1.46,11.5-1.14,3.76-2.73,8.95,1.31,12.79.57,1.32-1,2.69.11,4a19.91,19.91,0,0,0,4,14.08c.22,2.08-2.63,3.21-1.75,5.47,1.8,4.59-1.23,4.63-4.31,4.63-1.43-1.1-.84-2.18-.12-3.44,1.53-2.69.38-5-1.4-7.06-.5-.59-1.12-1.49-2-.7a2.13,2.13,0,0,0-.29,1.82c.45,1.58,2.95,2.93,1,4.73s-3.13-.91-4.76-1.26a15.61,15.61,0,0,0-2.47-.16c-2.41-2.41-1-7.7-6.06-8.1a49.07,49.07,0,0,1-4.11-23.14c.16-3.1.11-5.53-4.31-5.42s-3.91,2.73-3.78,5.41a50.65,50.65,0,0,1-4.13,23.15,5.65,5.65,0,0,0-4,4.08,5.64,5.64,0,0,1-4,4.06c-2.12.43-3.6,2.79-6.12,2-1.26-2.77,3-4.52,1.34-7.75-2.36,1.12-3.83,3.26-6.08,4.34-2,1-1,2.64.73,3.19a16.11,16.11,0,0,0,4,.22c-.76,2.48,1.42,4,2,6-1.66,1.06-1.4,4-4,4.13-3.08-.47-4.52.77-4.13,3.94l0,0-2,.09-1.91,0c0-.67,0-1.34-.08-2-.14-2.2-1.76-2.1-3.29-2.09-1.23,0-2.41.16-2.57,1.74-.2,1.9,1.12,2.11,2.53,2.36,2.75.48,1.38,2.48,1.38,4h0a1.83,1.83,0,0,0-2,2l-1.8.14c-4.1-.48-7.68.47-10.37,3.83-2.6,1-6.2-1.81-8,2.1h0c-7.62,1.79-14.49-4.92-22.22-2l-2-.14c-1.41-4.09-4.72-4.16-8.2-3.87-2.17.18-3.7-.93-5.21-2.34-5-4.63-10.91-8.22-14.91-13.91.19-4.44-2.72-7.79-4.62-11.24-5.43-9.88-5.84-20.39-5.47-31.16,3.23-.63,4.88-2.83,4.46-5.87C148.83,403.38,148.82,401.29,148.65,399.19Zm133.56,40.4c.6-.17,1.48-.13,1.27-1.08-.16-.75-.91-.86-1.58-.78s-1.48.11-1.28,1.06C280.79,439.54,281.53,439.59,282.21,439.59Zm6.89-45.83c-.9.09-.92.79-.93,1.43s0,1.43.91,1.44.92-.77.92-1.42S290,393.88,289.1,393.76Zm-53.77-9.42c-.41-.45-.65-.92-1-1a1.37,1.37,0,0,0-1.2.34c-.39.69,0,1.2.77,1.21A5,5,0,0,0,235.33,384.34Z"/><path class="cls-7" d="M314.3,478.08c1,3.11,3.64,5.61,3.21,9.32-.52,4.49-1.39,8.66-5.84,11-2.79,1.44-4.52,3.82-6.35,6.28-19.58,26.2-50.64,34.34-80.57,20.61-8.13-3.73-10.35-8.93-7.4-16.7,2.78-7.32,9.08-9.59,17-5.83,19.7,9.33,37.62,3,48.28-8.69a36.26,36.26,0,0,0,7.71-12.25c1.68-4.74,4.29-8.78,9.72-10l12.26,4.25A1.91,1.91,0,0,0,314.3,478.08Z"/><path class="cls-8" d="M154.75,453.76c4,5.69,9.94,9.28,14.91,13.91,1.51,1.41,3,2.52,5.21,2.33,2,2.76,4.9,3.79,8.2,3.88l2,.14c.57,2.6,2.73,1.82,4.37,2,2.43.23,5-.08,6.86,2-8.21.84-16.57.29-23.35-4.24-6.94-4.63-13.78-9.75-19.4-16.14-1-1.14-.74-2.5-.75-3.82Z"/><path class="cls-8" d="M314.3,478.08a1.91,1.91,0,0,1-1.95-2l6.1-.18c7.38-.26,14.7,1,22.18-1.35,3.73-1.15,7.58-3.38,11.86-2.81l.34.34c-.06,2.28-1.1,3.17-3.42,4.05-7.82,3-16.41.38-24.15,3.77a4.84,4.84,0,0,1-5.14-1.06C318.49,477.37,316.27,478.19,314.3,478.08Z"/><path class="cls-4" d="M387.09,423.49C385,439.9,380,454.79,365.79,465l-1.27-1.06c.61-2.67,4.38-2.9,4.55-5.91h.06a4.21,4.21,0,0,0,3.9-4.14v0c2.79-1.08,3.53-3.53,4.07-6.11.28-.69.55-1.38.83-2.08l.36-1.85c1.86-.07,2.38-1.43,3-2.9a54.6,54.6,0,0,0,4.06-17.39Z"/><path class="cls-9" d="M278.07,447.72a15.61,15.61,0,0,1,2.47.16c1.63.35,2.87,3,4.76,1.26s-.54-3.15-1-4.73a2.13,2.13,0,0,1,.29-1.82c.85-.79,1.47.11,2,.7,1.78,2.08,2.93,4.37,1.4,7.06-.72,1.26-1.31,2.34.12,3.44a8.83,8.83,0,0,0,0,6c-3.81-.8-4.6-6-8.91-6.09a2.2,2.2,0,0,1-.29-.94C281.86,450.58,277.48,449.55,278.07,447.72Z"/><path class="cls-10" d="M231.54,464l1.91,0c.19.73.26,1.72,1.32,1.44.35-.09.48-1,.71-1.53l0,0a5.24,5.24,0,0,0,4.13-3.94c2.58-.17,2.32-3.07,4-4.13a5.16,5.16,0,0,0,4.07-4l1.93,0c-.07.82.19,1.92-.24,2.42-5.65,6.56-10.8,13.77-19.87,16.1l0-.45v-1.89h0C232.2,467.66,231.37,465.56,231.54,464Z"/><path class="cls-3" d="M369.07,458c-.17,3-3.94,3.24-4.55,5.91l-7.82,5.9-3.92.17c.23-1.51-.68-4,1.82-3.91,4.28.13,6-3.18,8.46-5.48C364.79,459,366.34,457.19,369.07,458Z"/><path class="cls-3" d="M196.25,478c-1.89-2-4.43-1.73-6.86-2-1.64-.15-3.8.63-4.37-2,7.73-2.94,14.6,3.77,22.22,2l-.09,1.91h0l-7.94.07Z"/><path class="cls-3" d="M318.45,475.88l-6.1.18-12.26-4.25c0-.56,0-1.12.05-1.68l.13-.38c6.78-1.14,11.41,5.08,17.82,5.24C318.22,475,318.33,475.57,318.45,475.88Z"/><path class="cls-3" d="M249.63,451.76l-1.93,0c0-1.34,0-2.68,0-4a5.64,5.64,0,0,0,4-4.06,5.65,5.65,0,0,1,4-4.08C255.15,444.41,252.86,448.32,249.63,451.76Z"/><path class="cls-3" d="M278.07,447.72c-.59,1.83,3.79,2.86.83,5.08A22,22,0,0,1,272,439.62C277.1,440,275.66,445.31,278.07,447.72Z"/><path class="cls-3" d="M298.21,469.85c-5.13-.36-7.53-4.31-10.27-7.82l.29-.3,3.89.16h0a5.25,5.25,0,0,0,4.07,4,1.81,1.81,0,0,0,2,2l0,0Z"/><path class="cls-3" d="M279.19,453.74c4.31.06,5.1,5.29,8.91,6.09h0l.13,1.88-.3.31C283.35,461,280.76,457.92,279.19,453.74Z"/><path class="cls-8" d="M207.15,477.91l.09-1.91h0l9.9-.19.29.3C214.62,480.1,210.57,477.19,207.15,477.91Z"/><path class="cls-8" d="M199.21,478l7.94-.07C204.72,480.91,201.9,480.93,199.21,478Z"/><path class="cls-8" d="M225.67,470.06l1.8-.14,2-.09,0,.45a5.52,5.52,0,0,1-6,3.82l-.28-.29Z"/><path class="cls-8" d="M223.54,474.1c-1.18,3.27-4,1.37-6.09,2l-.29-.3c.08-.6.15-1.2.23-1.8l5.87-.19Z"/><path class="cls-8" d="M352.78,470l3.92-.17c-.1,2.82-2.35,1.9-3.87,2.23l-.34-.34C352.59,471.15,352.68,470.58,352.78,470Z"/><path class="cls-11" d="M298.21,469.85c0-.64,0-1.29,0-1.93h2l0,1.82-.13.38Z"/><path class="cls-12" d="M383.05,379c1.6-1.85,1.34-2.9-.84-3.82-1.46-.63-3.37.52-5.57-2.43,19.62,3.79,38.29,1.62,56.92,2.2-.36,2.94.78,4.68,3.87,4,4.06-.9,7.38,1.51,10.83,2.56,3.15.95.85,5,1.47,7.59-5.2-3.29-10.8-4.24-17-4.11-16.95.34-33.92.14-50.88.07-1.78,0-4.26,1.05-4.91-2C379.71,382.82,383.69,384.41,383.05,379Z"/><path class="cls-3" d="M360.84,369.83a2.25,2.25,0,0,0,.85.2c1.48,1.63,2.51,3.84,5.11,4.05v0c0,2.08,1.64,3,2.93,4.14,3.85,8.58,10.89,10.26,19.36,9.11a51.79,51.79,0,0,1,7-.05c13.93,0,27.86-.13,41.79.06,8.7.12,14.36,7.09,11.95,14.2-.61-1.51.62-3.93-2.17-4.35-1.51-4.45-6.4-4.88-9.33-7.69-1-.91-2.6-.23-2.84,1.61l-2,0h0c-.37-2.45-2.29-1.94-3.86-1.94-4.78,0-9.57,0-14.36,0H403.25l-21.21,0c-3.76-.34-7.78.64-11.05-2.18-.23-1.58.58-3.68-2-4.09,0-.64-.08-1.28-.11-1.92-.6-3.25-3.22-1.6-5-2.06h0c-2.23-5.83-6.87-8.18-12.35-10.9a71,71,0,0,0-31.22-7.3c1.28-1.51,3-.88,4.62-1.05,4.63-.49,9.16.65,13.74.85,5,.51,9.2,3.48,14.08,4.28h0A21.59,21.59,0,0,0,360.84,369.83Z"/><path class="cls-12" d="M433.55,413.33c.83,4.76-.95,6.52-5.94,6.22-7-.42-14.12-.11-21.18-.11a8.08,8.08,0,0,1-2.51,0c-5.36-1.9-10.19-3-9.5,6.69-.89-5.46-2.48-8.07-7.25-5.63-.16-7.13-.16-7.13,6.77-7.13Z"/><path class="cls-13" d="M433.55,413.33H393.94c-6.93,0-6.93,0-6.77,7.13,0,1-.05,2-.08,3l-1.77.05-.39-10.2c.1-.89.21-1.78.31-2.67,15.77-.07,31.54-.18,47.31-.2,6.06,0,12.13.16,17-4.37-.21,5.91-5,6.19-9.06,7.11C438.29,413.71,435.87,413.32,433.55,413.33Z"/><path class="cls-13" d="M449.89,401.52c2.41-7.11-3.25-14.08-11.95-14.2-13.93-.19-27.86-.06-41.79-.06a51.79,51.79,0,0,0-7,.05c-8.47,1.15-15.51-.53-19.36-9.11,2.18-2.15,3.41.82,5.17.95,0,.63,0,1.26.07,1.9a1.81,1.81,0,0,0,2,2c.65,3.06,3.13,2,4.91,2,17,.07,33.93.27,50.88-.07,6.19-.13,11.79.82,17,4.11.26,2,1.62,3.69,2.57,5.23,3,4.77.56,7.83-2.44,11l-.15-2.12Z"/><path class="cls-3" d="M449.71,403.24l.15,2.12a1.06,1.06,0,0,0-.31.74c-4.87,4.53-10.94,4.36-17,4.37-15.77,0-31.54.13-47.31.2,1.31-2.86,3.66-3.38,6.58-3.36q23.48.13,46.95,0c1.78,0,4.26,1.06,5-2,1.57-.21,3.68.64,4-2h0Z"/><path class="cls-4" d="M275.86,385c-.52-2.88-2.83-1.82-4.45-1.86-5-.13-10-.05-15-.59,3-2.4,6.46-1.22,9.69-1.42,2.82-.18,5.12.15,6.62-3.55,1.36-3.35,4.8-5.38,9.13-4.65,1.95.33,4,0,6-.09l.18.17-.14,1.68a18.39,18.39,0,0,0-8,8.22,2.1,2.1,0,0,0-2,2.16h0l-1.9.13Z"/><path class="cls-4" d="M239.74,372.84c2.46-.17,4.74,1,7.39.37,3-.72,4,2.65,4.33,4.46,1.16,6,4.27,8.19,10.3,7.51,4.65-.51,9.4-.17,14.1-.2l.18.19L275.8,387a2,2,0,0,0-.84.15c-3,0-6-.22-9-.05-7.49.43-14.86.62-20.13-6.15h-.06c-1-3.07-3.2-4.91-6-6.25l-.22-1.68Z"/><path class="cls-4" d="M213.35,358.82c3.34-1.89,6.07.86,9.11,1.27,3.36.45,6.23,2.83,10.17,1,2.63-1.24,4.34,2.05,5.81,3.91,1.68,2.12-1.1,1.57-1.84,2.27-.93.9,0,1.41.43,2.06.86,1.21,2.44,1.86,2.71,3.53l-.19.18c-2.22.12-3.57-1.54-5.15-2.64a59.54,59.54,0,0,0-14-7.71c-1.16-2.16-3.13-2-5.11-1.78l-1.93-.18Z"/><path class="cls-10" d="M152.75,385.11l-.06-2a.81.81,0,0,0,.18-.7,2.68,2.68,0,0,0,2-3.22l0,0a12.36,12.36,0,0,0,6-6.12l0,0c1.37,0,2.11-.59,2.09-2l0,0c4.5-1.07,8-4.05,11.85-6.3l.09-.08c3.92-1.69,7.81-3.51,12.13-4l4,.06c-.17,2.2-1.89,1.76-3.31,2.1-11.65,2.82-21.21,9.06-29,18a5.54,5.54,0,0,0-3.93,4.16l0,0Z"/><path class="cls-4" d="M287.92,372.82c.17-1.78.2-3.27,2.45-4.26,3.24-1.42,3.7-4.11,0-5.5-2.79-1.06-2.77-3-2.09-4.62,1.22-2.93,2.38,1.33,3.81.39h0c5.09,5.74,5.09,5.74,11.15,2.11,1-.58,2-1.49,3-.1l0,1.89c-6.54,2.54-12,7-18.14,10.26Z"/><path class="cls-4" d="M352.74,364.88c-4.88-.8-9.11-3.77-14.08-4.28-.24-1.94-1.83-1.71-3.13-1.94,2.38-3.83,7.15-2.07,8.88-1.34,3.89,1.64,8,.81,12.55,2.28C354.63,361.21,349.3,360.24,352.74,364.88Z"/><path class="cls-13" d="M335.53,358.66c1.3.23,2.89,0,3.13,1.94-4.58-.2-9.11-1.34-13.74-.85-1.58.17-3.34-.46-4.62,1.05-4.91-1-9.17,2.73-14.06,1.93l0-1.89,2-.09c1.59-.14,3.68.74,4-1.94h0l20.25-.18Z"/><path class="cls-4" d="M187,360.73c-4.32.5-8.21,2.32-12.13,4,2.63-3.21.86-4.23-2.76-4.91,5.87-1.4,11.84-.23,17-3Z"/><path class="cls-12" d="M433.58,374.21c4.87-1.77,9.88-1.2,14.84-1,.92,0,1.2,1,1.16,1.94a1.62,1.62,0,0,1-1.48,1.7c-1.49.2-3.1.48-4.36-.51C440.58,373.91,436.94,375.51,433.58,374.21Z"/><path class="cls-13" d="M187,360.73l2.14-3.86c2,.5,3.52,2.68,6,1.75l16.22.15,2,.05c0,.63,0,1.26,0,1.89l-5.93,0a25.91,25.91,0,0,0-16.35.06h0Z"/><path class="cls-4" d="M332.58,358.62l-20.25.18C316.68,356,329.44,355.91,332.58,358.62Z"/><path class="cls-4" d="M211.33,358.77l-16.22-.15c3.65-3.81,8.27-1,12.38-1.75C209,356.6,210.93,356.38,211.33,358.77Z"/><path class="cls-12" d="M374.91,379.15c-1.76-.13-3-3.1-5.17-.95-1.29-1.16-2.94-2.06-2.93-4.14C371.58,372.58,375.67,375.15,374.91,379.15Z"/><path class="cls-4" d="M377,383.08a1.81,1.81,0,0,1-2-2c2.47-1.54,5.08-2.54,8.07-2C383.69,384.41,379.71,382.82,377,383.08Z"/><path class="cls-4" d="M160.92,373.07a12.36,12.36,0,0,1-6,6.12c-.41-1.94-1.73-5.07-1-5.59C155.72,372.16,158.49,373.08,160.92,373.07Z"/><path class="cls-4" d="M174.8,364.82c-3.87,2.25-7.35,5.23-11.85,6.3C165.24,365.89,169.8,365,174.8,364.82Z"/><path class="cls-4" d="M360.84,369.83a21.59,21.59,0,0,1-8.09-4.94C356.54,364.75,360.32,364.63,360.84,369.83Z"/><path class="cls-4" d="M366.8,374.08c-2.6-.21-3.63-2.42-5.11-4.05C365.83,368.31,366.43,371.05,366.8,374.08Z"/><path class="cls-4" d="M292.13,358.83c1.21-3.3,3.36-1.88,6.28-1.29-2.42,1.86-4.46,1-6.28,1.29Z"/><path class="cls-4" d="M312.3,358.81c-.36,2.68-2.45,1.8-4,1.94C308,356.76,310.6,358.72,312.3,358.81Z"/><path class="cls-4" d="M367.9,368.41c-.87-.13-.92-.81-.92-1.46s0-1.44.92-1.43.91.78.92,1.43S368.79,368.29,367.9,368.41Z"/><path class="cls-4" d="M154.91,379.16a2.68,2.68,0,0,1-2,3.22C152.7,380.77,152.45,379.11,154.91,379.16Z"/><path class="cls-4" d="M163,371.08c0,1.42-.72,2-2.09,2C160.82,371.62,161.5,370.94,163,371.08Z"/><path class="cls-4" d="M254.13,374.26c.12-.28.18-.72.39-.8s.54.2.82.32c-.13.28-.19.72-.39.8S254.41,374.38,254.13,374.26Z"/><path class="cls-4" d="M149.3,374.27c-.13,0-.35-.09-.36-.14a1.36,1.36,0,0,1,.13-.42c.13,0,.36.08.36.13A1.5,1.5,0,0,1,149.3,374.27Z"/><path class="cls-9" d="M207.43,360.74l5.93,0,1.93.18c1,2.7,3.23,1.69,5.11,1.78a59.54,59.54,0,0,1,14,7.71c1.58,1.1,2.93,2.76,5.15,2.64.08.56.15,1.12.22,1.68l-.12,2.27-.08.07c-.83-.05-2.24.17-2.41-.2-2.2-4.72-5.74-4.77-10.41-4.41-2.07.16-2.5,0-4,1.62s-4.4,3.48-7.51,3-4.28,1-3.91,4l-3,0c-2.81-2.87-10.31-2.88-13.16,0-5-.92-8.46,3.51-13,4-2.81.3-3.26,1.74-3.37,3.9-2.38-.37-3.73,1.78-5.74,2.33-1.44-.06-2.13.63-2.06,2.08l-.13,1.87c-4.86,3.48-7.22,8-6.07,14.1-3.89,1.93-1.14,5.48-2,8.15-2.5-.37-1.84-2.34-2-3.92-.46-4.51-.94-8.65-6.85-9.74-2.36-.44,0-1.77.8-2.51,2.69-.34,1.81-2.46,2-4,1.4-.14,3,.46,4.05-1,.81-.13,1.68-.23,1.81-1.27.17-1.35-.79-1.6-1.81-1.75l-4.05,2h-2c-.34-2.73-2.51-1.82-4.1-2.07,0-.65,0-1.31.08-2l4,0h2a1.87,1.87,0,0,0,3.33-.73c0-2.23-2.16-.88-3.33-1.29h-1l-1-4,0,0c3.24.44,4.49-1,3.93-4.16,7.83-9,17.39-15.22,29-18,1.42-.34,3.14.1,3.31-2.1h0Zm-41,29.13c-.28-.12-.63-.4-.83-.32s-.26.52-.38.8c.28.12.62.4.82.32S166.35,390.15,166.48,389.87Z"/><path class="cls-9" d="M148.65,399.19c.17,2.1.18,4.19.47,6.3.42,3-1.23,5.24-4.46,5.87C144.71,406.89,145.68,402.71,148.65,399.19Z"/><path class="cls-11" d="M154.74,385.12c.34,1.34.67,2.68,1,4a2.12,2.12,0,0,0-1,2l-4,0-.09-1.07a4.84,4.84,0,0,0,2.1-5v0Z"/><path class="cls-10" d="M152.74,385.13a4.84,4.84,0,0,1-2.1,5l-1.8.08C150.37,388.67,149.94,385.65,152.74,385.13Z"/><path class="cls-14" d="M443.72,405.32c-.69,3-3.17,2-5,2q-23.47.12-46.95,0c-2.92,0-5.27.5-6.58,3.36-.1.89-.21,1.78-.31,2.67-2.62.69-1.84,2.87-1.81,4.53.19,8.61-1.21,16.82-5.58,24.38-.4.68.15,1.22.76,1.58l-.36,1.85c-1.43.06-2.93,0-2.89,2.1-3.58,1.07-1.62,4-2,6.09v0c-3.35-.56-4.6.87-3.9,4.14h-.06c-2.73-.83-4.28,1-6,2.59-2.47,2.3-4.18,5.61-8.46,5.48-2.5-.08-1.59,2.4-1.82,3.91-.1.58-.19,1.15-.29,1.72-4.28-.57-8.13,1.66-11.86,2.81-7.48,2.32-14.8,1.09-22.18,1.35-.12-.31-.23-.88-.36-.89-6.41-.16-11-6.38-17.82-5.24,0-.61,0-1.21,0-1.82,2.2,0,4.78.52,2.34-3.26a5,5,0,0,1,.56-5.66c.83-1,1.64-2,.15-2.84-1.24-.68-2,.38-2.84,1.34-2.15,2.57-4.19,5.51-8.31,4.37h0c-.3-2.71-2.43-1.85-4-2.05h0a8.83,8.83,0,0,1,0-6c3.08,0,6.11,0,4.31-4.63-.88-2.26,2-3.39,1.75-5.47h4c0,.66,0,1.31.07,2s0,1.39,0,2.08c-3.17.93-2.45,3.1-.79,4.37,2.05,1.56,4.78,3.56,6.85-.33h4.05a1.81,1.81,0,0,0,2.08,2l4,.15c1,2.23,3.62,4.29,5.1,3.47,4.65-2.56,9.43-1.08,14.11-1.53,1.36-.13,2.7-.06,3.05-1.81,4.82,1.46,7-4,11.14-4.21,3-.12,3.08-1.89,3-4,1.79-1.66,4.68-1.77,5.9-4.22,3.12-2.34,4.74-5.32,4-9.31a.87.87,0,0,1,.1-.67c1.09-.14,1.55-.79,2.12-1.75,3.46-5.88,1.44-12.29,2-18.44.1-.66,0-1.79.32-1.9,5.19-1.85,3.51-6.21,3.76-9.9.2-2.92-2.39-4.63-3-7.22-.31-1.35-1.84-2.86.95-3.24.13.72.1,1.58,1.21,1.52a.48.48,0,0,0,.31-.31c.06-1.11-.8-1.08-1.52-1.21-.12-2.19-1.81-3.55-2.84-5.24s-2-3.19-.18-4.9h0c1,2.38,3,2,5,2.06,0,.64.07,1.28.11,1.92.14,1.63-.81,3.8,2,4.09,3.27,2.82,7.29,1.84,11.05,2.18,0,1.6.18,3.25,2.45,2.59,4.9-1.42,9.9-.34,14.84-.69,1.56-.12,3.5.51,3.92-1.94h12.13c.41,2.42,2.32,1.91,3.88,1.92,4.78,0,9.56,0,14.34,0h0c.25.53.43,1.47.77,1.53,1.13.21,1.07-.81,1.19-1.56.24-1.84,1.88-2.52,2.84-1.61,2.93,2.81,7.82,3.24,9.33,7.69q0,3.06,0,6.12h0c-1.43,0-2.86,0-4.29.06-.68,0-1.37.37-1.17,1.06C442.37,404.82,443.2,405,443.72,405.32Zm-5.87-10c-1,.25-3.32-1-3.83,1-.66,2.67,2.34,1.42,3.44,2.35.76.63,1.62,1.13,2.37,1.76a2.44,2.44,0,0,0,2.75.46c1.34-.64,1-1.94,1-3.05s-.26-2.39-1.75-2.54C440.72,395.21,439.56,395.3,437.85,395.3Zm-113.2,62.78c1.07,2.22,2.31,3.53,4.53,3.22a1.52,1.52,0,0,0,1.1-2C329.11,456.75,327,458.09,324.65,458.08Z"/><path class="cls-15" d="M209.3,453.77l-12.11,0c-3.76-2.82-8.2-4.08-12.59-5.44-.11,0-.39.47-.59.73l-5-1.28h0c-.15-2.82-4.08-3-4.12-5.92.61-3.17-.63-4.63-3.9-4.21l0,0c.23-3.44.09-6.7-3.92-8.09-.06-.65-.11-1.29-.17-1.93,1.45-6.08-.59-12.15-.07-18.23l.14.05L177,412.11c3.81.4,7.61,1,11.43,1.17,14,.59,27.46-2.67,41.07-5l5.68-.19a56.79,56.79,0,0,1,.31,21.39c-2,.81-3.67,2.24-3.69,4.31,0,2.95-1.93,4.4-3.59,6.26a38.19,38.19,0,0,1-14.26,10.59C212.45,451.2,209.64,451.06,209.3,453.77Z"/><path class="cls-9" d="M363.87,379c-1.78,1.71-.85,3.21.18,4.9s2.72,3.05,2.84,5.24h0c-2.79.38-1.26,1.89-.95,3.24.59,2.59,3.18,4.3,3,7.22-.25,3.69,1.43,8-3.76,9.9-.29.11-.22,1.24-.32,1.9l-1.85-.16c-.24-3.44.45-7.17-2.19-10-3.55-3.81-4.06-10.58-10.87-11.23-.26-1.43-.25-3.49-1.94-3.55-3.07-.09-4.79-2.54-7.33-3.43-.54-2.69-2.72-1.94-4.39-2-6-.09-11.92-.06-17.88-.07-.91-3-3-4.11-6.05-4a8.58,8.58,0,0,1-8.13-4.3c-.35-.6-.73-1.43-1.35-1-4.24,2.72-10.68-.49-13.83,5.12-.11.2-.63.17-.95.24l-.12-2.34.14-1.68c6.12-3.29,11.6-7.72,18.14-10.26,4.89.8,9.15-2.94,14.06-1.93a71,71,0,0,1,31.22,7.3C357,370.82,361.64,373.17,363.87,379Zm-41.23-16.6a4.68,4.68,0,0,0-.79-.42c-.12,0-.3.09-.45.14.11.2.23.58.34.57A3.36,3.36,0,0,0,322.64,362.4Z"/><path class="cls-10" d="M209.3,453.77c.34-2.71,3.15-2.57,4.63-3.17A38.19,38.19,0,0,0,228.19,440c1.66-1.86,3.56-3.31,3.59-6.26,0-2.07,1.72-3.5,3.69-4.31l.18,2.21c-2.26,10-9.63,15.4-17.88,20C215.18,453.07,212.51,454.57,209.3,453.77Z"/><path class="cls-3" d="M235.65,431.65l-.18-2.21a56.74,56.74,0,0,0-.31-21.38c.65-3.77-2.66-5.8-3.87-8.75l0-2,2.19,0a1.85,1.85,0,0,0,2,2h0c.2,1.59-.57,3.66,2,4.07-.81,6.13,3.2,11.67,2.08,17.9C238.94,425,238.11,428.61,235.65,431.65Z"/><path class="cls-3" d="M318.39,381c6,0,11.92,0,17.88.07,1.67,0,3.85-.73,4.39,2l-4.16.07c-5.37,0-10.73-.12-16.1,0-1.54,0-3.51-.47-4.26,1.73-4.75-.74-7.52,4-11.9,4.31l-.2-.24c2.16-2.91,4.14-6,8.45-5.89,1.21,0,1.72-.82,1.91-1.91Z"/><path class="cls-10" d="M245.8,381c5.27,6.77,12.64,6.58,20.13,6.15,3-.17,6,0,9,.05,0,.63,0,1.26-.07,1.89-6.88,0-13.78-.11-20.66.19-2.61.12-4.34-1.31-6.43-2.19C247.24,385,244.72,383.57,245.8,381Z"/><path class="cls-3" d="M290,425.61c-4-3.84-2.45-9-1.31-12.79,1.19-3.94,1.12-7.66,1.46-11.5a1.91,1.91,0,0,0,2-2.05c1.79.15,2.22-2.12,3.89-2.18l.46.43c.27,3.24-3.16,4.87-3.41,7.88-1.72,2.42-.6,5.23-1.08,7.82-2,.47-1.83,2.11-1.83,3.6,0,2.85.06,5.7.09,8.55Z"/><path class="cls-3" d="M288,374.67l.12,2.34,0,6c-3.76-3.4-5.32,1.48-8,2.13l-.1-.1,0-2.14A18.39,18.39,0,0,1,288,374.67Z"/><path class="cls-9" d="M314.4,381.08c-.19,1.09-.7,1.95-1.91,1.91-4.31-.14-6.29,3-8.45,5.89l-2.82.23C302.92,382,307.54,379.72,314.4,381.08Z"/><path class="cls-9" d="M213.29,381.08l3.47,0c6.73,0,7.84,1,8.73,8.05l-.38.4L223.5,389c-2-3.08-3.95-6.15-8.29-6C214,383,213.47,382.18,213.29,381.08Z"/><path class="cls-3" d="M213.29,381.08c.18,1.1.7,1.95,1.92,1.91,4.34-.12,6.3,2.95,8.29,6l-2,.05h0c-2.31-2.15-4.64-4.24-8.13-4l-1.89-.17,0,.05c-.08-1.39-1.16-1.61-2.2-1.88l-2.07-1.95,1.07-.11,3,0Z"/><path class="cls-9" d="M298.16,443.69h-4a19.91,19.91,0,0,1-4-14.08H292c.06.65.11,1.31.17,2-.94,2.77,2.16,4.36,2,6.92-.18,3.24,1.79,3.45,4.24,2.95l.14-.05C298.41,442.17,298.28,442.93,298.16,443.69Z"/><path class="cls-9" d="M245.8,381c-1.08,2.61,1.44,4,2,6.09l-4.16.07c-.14-3.86-6-5.38-4.07-10.08l.07-.07c2.73.27,3.2,4,6.1,4Z"/><path class="cls-11" d="M174.84,441.82c0,2.9,4,3.1,4.12,5.92-5.65-.67-10-4.95-10.16-10l.16-.17,2,0,0,0C170.47,440.65,171.89,442,174.84,441.82Z"/><path class="cls-11" d="M162.79,417.43c.85-2.67-1.9-6.22,2-8.15l.2.2v17.9l-.22.21C160.66,424.88,163.83,420.75,162.79,417.43Z"/><path class="cls-9" d="M241.62,449.75a16.11,16.11,0,0,1-4-.22c-1.77-.55-2.73-2.22-.73-3.19,2.25-1.08,3.72-3.22,6.08-4.34,1.63,3.23-2.6,5-1.34,7.75Z"/><path class="cls-8" d="M184,449c.2-.26.48-.77.59-.73,4.39,1.36,8.83,2.62,12.59,5.44l-7.91-.05c-.57-2.4-2.54-1.86-4.2-2l0,0Z"/><path class="cls-9" d="M247.74,447.76c0,1.34,0,2.68,0,4a5.16,5.16,0,0,1-4.07,4c-.59-2-2.77-3.52-2-6h0C244.14,450.55,245.62,448.19,247.74,447.76Z"/><path class="cls-11" d="M231.54,464c-.17,1.58.66,3.68-2,4,0-1.48,1.37-3.48-1.38-4-1.41-.25-2.73-.46-2.53-2.36.16-1.58,1.34-1.73,2.57-1.74,1.53,0,3.15-.11,3.29,2.09C231.5,462.64,231.52,463.31,231.54,464Z"/><path class="cls-9" d="M233.51,397.25l-2.19,0c-2.22-2.48-4.72-4.73-6.21-7.79l.38-.4c3.95.36,6.15,3,8,6.1Z"/><path class="cls-11" d="M223.26,473.81l-5.87.19-2.09-.11c2.69-3.36,6.27-4.31,10.37-3.83Q224.47,471.94,223.26,473.81Z"/><path class="cls-11" d="M166.83,427.57c.06.64.11,1.28.17,1.93-1,3.09,2.69,5,2,8.05l-.16.17c-3,.24-4.3-1-4-4.1a52.76,52.76,0,0,0,0-6l.22-.21Z"/><path class="cls-9" d="M280,385.13c2.69-.65,4.25-5.53,8-2.13-2.23,2.67-5.24,4.29-8.11,6.1C280,387.77,280,386.45,280,385.13Z"/><path class="cls-3" d="M301.22,389.11l2.82-.23.2.24c-.06.61-.12,1.23-.17,1.84-2.05.66-3.63,1.79-4,4.07-1.82-.09-1.77,2.51-3.54,2.49l-.46-.43C295.72,393.1,299.23,391.6,301.22,389.11Z"/><path class="cls-3" d="M183.07,473.88c-3.3-.09-6.16-1.12-8.2-3.88C178.35,469.72,181.66,469.79,183.07,473.88Z"/><path class="cls-3" d="M215.3,473.89l2.09.11c-.08.6-.15,1.2-.23,1.8l-9.9.19C209.1,472.08,212.7,474.87,215.3,473.89Z"/><path class="cls-11" d="M184,449l1.1,2.7c-3.13.35-5.22-.91-6.13-4Z"/><path class="cls-3" d="M280,385.13c0,1.32-.07,2.64-.1,4l-5-.05.06-1.89a2,2,0,0,1,.84-.15c1.44.13,2.16-.52,2.14-2h0l2,0Z"/><path class="cls-11" d="M239.65,459.88a5.24,5.24,0,0,1-4.13,3.94C235.13,460.65,236.57,459.41,239.65,459.88Z"/><path class="cls-14" d="M233.51,397.25l0-2.05h4v2a1.88,1.88,0,0,0-2,2A1.85,1.85,0,0,1,233.51,397.25Z"/><path class="cls-11" d="M154.75,395.21h2v2c-.2,1.58.68,3.7-2,4Z"/><path class="cls-3" d="M292,429.61H290.1c-1.07-1.31.46-2.68-.11-4l.26-.24C292.69,426,292,428,292,429.61Z"/><path class="cls-9" d="M243.86,387c-1.11,2.58-2.33,2.18-3.87,1.44C240.92,386.48,242.47,387.41,243.86,387Z"/><path class="cls-9" d="M282.21,439.58c-.68,0-1.42,0-1.59-.79-.2-1,.66-1,1.28-1.06s1.42,0,1.58.78C283.69,439.46,282.81,439.42,282.21,439.58Z"/><path class="cls-9" d="M289.1,393.75c.88.13.91.82.9,1.46s-.05,1.43-.92,1.42-.91-.79-.91-1.44S288.2,393.85,289.1,393.75Z"/><path class="cls-9" d="M237.58,397.22v-2c.3-.52.52-1.39.91-1.47.75-.16,1,.63,1,1.28A1.85,1.85,0,0,1,237.58,397.22Z"/><path class="cls-11" d="M185.08,451.71c1.66.12,3.63-.42,4.2,2C187.61,453.61,185.42,454.62,185.08,451.71Z"/><path class="cls-9" d="M237.55,403.33c-2.59-.41-1.82-2.48-2-4.07C238.31,399.58,237.38,401.73,237.55,403.33Z"/><path class="cls-9" d="M235.33,384.34a5,5,0,0,1-1.4.56c-.74,0-1.16-.52-.77-1.21a1.37,1.37,0,0,1,1.2-.34C234.68,383.42,234.92,383.89,235.33,384.34Z"/><path class="cls-9" d="M292.14,399.27a1.91,1.91,0,0,1-2,2.05c.1-1.26.28-2.48,1.46-3.26Z"/><path class="cls-11" d="M235.48,463.86c-.23.53-.36,1.44-.71,1.53-1.06.28-1.13-.71-1.32-1.44Z"/><path class="cls-11" d="M229.5,469.83l-2,.09a1.83,1.83,0,0,1,2-2C229.5,468.57,229.5,469.2,229.5,469.83Z"/><path class="cls-3" d="M378.3,443.83c-.61-.36-1.16-.9-.76-1.58,4.37-7.56,5.77-15.77,5.58-24.38,0-1.66-.81-3.84,1.81-4.53l.39,10.2a54.6,54.6,0,0,1-4.06,17.39C380.68,442.4,380.16,443.76,378.3,443.83Z"/><path class="cls-10" d="M373,453.87c.39-2.12-1.57-5,2-6.09l2.06,0C376.57,450.34,375.83,452.79,373,453.87Z"/><path class="cls-10" d="M369.13,458c-.7-3.27.55-4.7,3.9-4.14A4.21,4.21,0,0,1,369.13,458Z"/><path class="cls-3" d="M377.11,447.76l-2.06,0c0-2.09,1.46-2,2.89-2.1C377.66,446.38,377.39,447.07,377.11,447.76Z"/><path class="cls-9" d="M292.12,461.88c4.12,1.14,6.16-1.8,8.31-4.37.81-1,1.6-2,2.84-1.34,1.49.82.68,1.88-.15,2.84a5,5,0,0,0-.56,5.66c2.44,3.78-.14,3.22-2.34,3.26h-2l0,0a1.86,1.86,0,0,0-2-2A5.25,5.25,0,0,1,292.12,461.88Z"/><path class="cls-9" d="M288.11,459.84c1.58.2,3.71-.66,4,2.05l-3.89-.16Z"/><path class="cls-11" d="M296.19,465.9a1.86,1.86,0,0,1,2,2A1.81,1.81,0,0,1,296.19,465.9Z"/><path class="cls-6" d="M403.25,389.22c-.42,2.45-2.36,1.82-3.92,1.94-4.94.35-9.94-.73-14.84.69-2.27.66-2.41-1-2.45-2.59Z"/><path class="cls-6" d="M433.6,391.12c-4.78,0-9.56.05-14.34,0-1.56,0-3.47.5-3.88-1.92,4.79,0,9.58-.07,14.36,0C431.31,389.18,433.23,388.67,433.6,391.12Z"/><path class="cls-6" d="M447.71,403.29q0-3.06,0-6.12c2.79.42,1.56,2.84,2.17,4.35l-.18,1.72Z"/><path class="cls-9" d="M368.85,381.07c-1.93,0-4,.32-5-2.06C365.63,379.47,368.25,377.82,368.85,381.07Z"/><path class="cls-9" d="M371,387.08c-2.84-.29-1.89-2.46-2-4.09C371.57,383.4,370.76,385.5,371,387.08Z"/><path class="cls-6" d="M435.55,391.09c-.12.75-.06,1.77-1.19,1.56-.34-.06-.52-1-.77-1.53Z"/><path class="cls-6" d="M443.72,405.32c-.52-.29-1.35-.5-1.47-.91-.2-.69.49-1,1.17-1.06,1.43,0,2.86,0,4.29-.06C447.4,406,445.29,405.11,443.72,405.32Z"/><path class="cls-10" d="M277.94,385c0,1.45-.7,2.1-2.14,2l.24-1.84Z"/><path class="cls-10" d="M279.94,385l-2,0a2.1,2.1,0,0,1,2-2.16Z"/><path class="cls-10" d="M245.74,381c-2.9,0-3.37-3.71-6.1-4,.05-.76.09-1.51.13-2.27C242.54,376,244.79,377.88,245.74,381Z"/><path class="cls-13" d="M220.4,362.67c-1.88-.09-4.14.92-5.11-1.78C217.27,360.69,219.24,360.51,220.4,362.67Z"/><path class="cls-11" d="M158.7,380.93c.56,3.16-.69,4.6-3.93,4.16A5.54,5.54,0,0,1,158.7,380.93Z"/><path class="cls-10" d="M207.43,360.74l-16.35.06A25.91,25.91,0,0,1,207.43,360.74Z"/><path class="cls-10" d="M207.22,381.12l2.07,1.95c-4.79,0-9.59-.05-14.39,0-1.5,0-3.51-.62-3.94,1.86l0,0a10.9,10.9,0,0,0-9,4.14v0l-2.81.26-.36-.4c.11-2.16.56-3.6,3.37-3.9,4.52-.5,7.93-4.93,13-4Z"/><path class="cls-11" d="M164.78,409.28c-1.15-6.07,1.21-10.62,6.07-14.1.06.75.12,1.5.19,2.25-1.21,4.05-5,7.21-4.14,12l-.14-.05-1.78.14Z"/><path class="cls-10" d="M171,397.43c-.07-.75-.13-1.5-.19-2.25s.09-1.25.13-1.87a2.06,2.06,0,0,0,2.06-2.08c2-.55,3.36-2.7,5.74-2.33l.36.4C177.48,393.05,173.93,394.91,171,397.43Z"/><path class="cls-11" d="M207.22,381.12,195.13,381c2.85-2.86,10.35-2.85,13.16,0Z"/><path class="cls-6" d="M156.76,397.22v-2l4.05-2v3C159.74,397.68,158.16,397.08,156.76,397.22Z"/><path class="cls-11" d="M156.76,389.14c1.17.41,3.35-.94,3.33,1.29a1.87,1.87,0,0,1-3.33.73Z"/><path class="cls-11" d="M160.81,396.2v-3c1,.15,2,.4,1.81,1.75C162.49,396,161.62,396.07,160.81,396.2Z"/><path class="cls-6" d="M156.76,389.14v2h-2a2.12,2.12,0,0,1,1-2Z"/><path class="cls-11" d="M173,391.23a2.06,2.06,0,0,1-2.06,2.08C170.91,391.86,171.6,391.17,173,391.23Z"/><path class="cls-11" d="M166.48,389.87c-.13.28-.19.72-.39.8s-.54-.2-.82-.32c.12-.28.18-.72.38-.8S166.2,389.75,166.48,389.87Z"/><path class="cls-3" d="M298.16,443.69c.12-.76.25-1.52.37-2.28a37.88,37.88,0,0,0,13.8,8.52c1.85.65,3.54,1.67,4.2,3.75l-2.19.22-4-.15a1.9,1.9,0,0,0-2.08-2h0c-.35-2.66-2.47-1.8-4-2h0c-1.07-2.76-4.18-2.5-6-4.1Z"/><path class="cls-9" d="M314.34,453.9l2.19-.22h20l.07.36c-.35,1.75-1.69,1.68-3.05,1.81-4.68.45-9.46-1-14.11,1.53C318,458.19,315.37,456.13,314.34,453.9Z"/><path class="cls-3" d="M350.76,445.79c.06,2.14-.05,3.91-3,4-4.11.17-6.32,5.67-11.14,4.21l-.07-.36c2.57-4.92,8.46-4.78,12.16-8Z"/><path class="cls-6" d="M437.85,395.3c1.71,0,2.87-.09,4,0,1.49.15,1.78,1.3,1.75,2.54s.3,2.41-1,3.05a2.44,2.44,0,0,1-2.75-.46c-.75-.63-1.61-1.13-2.37-1.76-1.1-.93-4.1.32-3.44-2.35C434.53,394.3,436.9,395.55,437.85,395.3Z"/><path class="cls-3" d="M363,411.24l1.85.16c-.53,6.15,1.49,12.56-2,18.44-.57,1-1,1.61-2.11,1.75,0-1.36,0-2.72,0-4.08a2.08,2.08,0,0,0,.11-.89c1.79-1.13,1.92-2.93,1.9-4.77-.05-3.44-.12-6.88-.18-10.32Z"/><path class="cls-6" d="M304.25,451.77c-2.07,3.89-4.8,1.89-6.85.33-1.66-1.27-2.38-3.44.79-4.37,1.32,2.8,3.88,1.84,6.07,2h0C304.26,450.42,304.25,451.1,304.25,451.77Z"/><path class="cls-8" d="M350.76,445.79l-2.07-.1c-.63-3.4,1.4-4.25,4.2-4.35,2.13.31,2.16-2.2,3.67-2.72l.1,2.95C355.44,444,352.55,444.13,350.76,445.79Z"/><path class="cls-13" d="M360.78,427.51c0,1.36,0,2.72,0,4.08a.83.83,0,0,0-.11.67c-2.18.81-1.36,3.93-3.6,4.68-.12-1.13-.24-2.26-.35-3.38-.62-2.47,1.58-3.94,2.14-6Z"/><path class="cls-3" d="M357.05,436.94c2.24-.75,1.42-3.87,3.6-4.68.75,4-.87,7-4,9.31,0-1-.07-2-.1-2.95l.12-1A.89.89,0,0,0,357.05,436.94Z"/><path class="cls-9" d="M324.65,458.08c2.33,0,4.46-1.33,5.63,1.24a1.52,1.52,0,0,1-1.1,2C327,461.61,325.72,460.3,324.65,458.08Z"/><path class="cls-9" d="M304.26,449.75c-2.19-.18-4.75.78-6.07-2,0-.69,0-1.39,0-2.08C300.08,447.25,303.19,447,304.26,449.75Z"/><path class="cls-9" d="M304.25,451.77c0-.67,0-1.35,0-2,1.57.21,3.69-.65,4,2Z"/><path class="cls-9" d="M366.89,389.14c.72.13,1.58.1,1.52,1.21a.48.48,0,0,1-.31.31c-1.11.06-1.08-.8-1.21-1.52Z"/><path class="cls-9" d="M308.3,451.76a1.9,1.9,0,0,1,2.08,2A1.81,1.81,0,0,1,308.3,451.76Z"/><path class="cls-2" d="M229.48,408.24c-13.61,2.37-27.12,5.63-41.07,5-3.82-.16-7.62-.77-11.43-1.17-1.6-3.62-6-6.47-3.27-11.53,1.42.74,2,4,4.15,1.24,1.77-2.26-.2-2.11-1.55-2.79-2.24-1.13-1-2.12.35-3.2,2.27-1.83,6.14-2.51,5.29-6.79v0c2-.28,4.1-1.18,5.86-.7,3.85,1,3.37-1.15,3.18-3.44l0,0c6.85,2,13.69-.3,20.53,0l0,0c-.16,1.44.49,2.16,1.94,2.17,2.52,1.37,5,2.8,8.08,2h0c0,1.94,2.56,2.91,2,5.09a18.78,18.78,0,0,0,0,3c.28,1.86-1,5.12,1,5.27,2.77.21,2.23-2.66,1.71-4.73a11,11,0,0,1,1.31-.5,1.88,1.88,0,0,1,2,2.1C229.49,402.28,228.51,405.26,229.48,408.24Zm-43.73-10.9c1.79-1.78,2.84-3.1,1.64-5.08-.38-.62-1.31-1-1.7-.45C184.61,393.27,184.91,394.93,185.75,397.34Z"/><path class="cls-4" d="M182,389c.85,4.28-3,5-5.29,6.79-1.34,1.08-2.59,2.07-.35,3.2,1.35.68,3.32.53,1.55,2.79-2.15,2.74-2.73-.5-4.15-1.24-2.71,5.06,1.67,7.91,3.27,11.53l-10.08-2.72c-.84-4.75,2.93-7.91,4.14-12,2.89-2.52,6.44-4.38,8.1-8.13Z"/><path class="cls-4" d="M229.48,408.24c-1-3,0-6,0-8.94h1.82c1.21,2.95,4.52,5,3.87,8.75Z"/><path class="cls-8" d="M165,409.48l1.78-.14c-.52,6.08,1.52,12.15.07,18.23l-1.84-.19Q165,418.43,165,409.48Z"/><path class="cls-8" d="M169,437.55c.73-3-3-5-2-8.05,4,1.39,4.15,4.65,3.92,8.09Z"/><path class="cls-8" d="M174.84,441.82c-3,.13-4.37-1.17-3.9-4.21C174.21,437.19,175.45,438.65,174.84,441.82Z"/><path class="cls-3" d="M349.93,390c6.81.65,7.32,7.42,10.87,11.23,2.64,2.82,1.95,6.55,2.19,10l-.38.29-1.75-2.25A16.3,16.3,0,0,0,354.94,398l0,.1c.19-3.18-2.61-4.34-4.25-6.27Z"/><path class="cls-10" d="M349.93,390l.78,1.85-1.85,1.1,0,0c.3-3-1.3-4.14-4.08-4.08l0-.06c-1.57-3.67-6.63-2.29-8.34-5.77l4.16-.07c2.54.89,4.26,3.34,7.33,3.43C349.68,386.53,349.67,388.59,349.93,390Z"/><path class="cls-3" d="M322.64,362.4a3.36,3.36,0,0,1-.9.29c-.11,0-.23-.37-.34-.57.15-.05.33-.18.45-.14A4.68,4.68,0,0,1,322.64,362.4Z"/><path class="cls-13" d="M231.29,399.31h-1.82a1.88,1.88,0,0,0-2-2.1c-.16-2.6-2.79-1.92-4-3,.57-2.18-2-3.15-2-5.09l2-.05,1.61.48c1.49,3.06,4,5.31,6.21,7.79Z"/><path class="cls-4" d="M336.5,383.11c1.71,3.48,6.77,2.1,8.34,5.77-3.55-.31-6.9-2.31-10.74,0-1.6,1-5.78,1.24-6.54-.35-2.69-5.62-7.29-2.79-11.1-3.38l-.32-.38c.75-2.2,2.72-1.7,4.26-1.73C325.77,383,331.13,383.09,336.5,383.11Z"/><path class="cls-4" d="M304.07,391c.05-.61.11-1.23.17-1.84,4.38-.3,7.15-5.05,11.9-4.31l.32.38c-3.57,2.94-7.08,6-12.1,6.07Z"/><path class="cls-15" d="M352.89,441.34c-2.8.1-4.83,1-4.2,4.35-3.7,3.2-9.59,3.06-12.16,8h-20c-.66-2.08-2.35-3.1-4.2-3.75a37.88,37.88,0,0,1-13.8-8.52l-.14,0-4.33-9.76c1.48-6.4-2.69-12.16-2.06-18.47.48-2.59-.64-5.4,1.08-7.82,2.9,1.77,6.11.68,9.16,1,5.41,1.61,10.78,3.41,16.24,4.81,15.28,3.89,27.86,11.16,34.26,26.48Z"/><path class="cls-4" d="M302.24,406.39c-3.05-.31-6.26.78-9.16-1,.25-3,3.68-4.64,3.41-7.88,1.77,0,1.72-2.58,3.54-2.49l.3.27c0,1.31-.08,2.62-.11,3.93h0c-2.72.72-2.38,2.27-1,4C300.13,404.34,301.22,405.33,302.24,406.39Z"/><path class="cls-8" d="M292,413.22c-.63,6.31,3.54,12.07,2.06,18.47l-1.93-.11c-.06-.66-.11-1.32-.17-2,0-1.65.73-3.58-1.71-4.24,0-2.85-.08-5.7-.08-8.55C290.17,415.33,290,413.69,292,413.22Z"/><path class="cls-4" d="M211.49,385c-6.84-.28-13.68,2-20.53,0,.43-2.48,2.44-1.83,3.94-1.86,4.8-.09,9.6,0,14.39,0C210.33,383.34,211.41,383.56,211.49,385Z"/><path class="cls-13" d="M221.47,389.07c-3.06.81-5.56-.62-8.08-2,0-.67,0-1.34,0-2C216.83,384.83,219.16,386.92,221.47,389.07Z"/><path class="cls-4" d="M213.34,385.07c0,.67,0,1.34,0,2-1.45,0-2.1-.73-1.94-2.17Z"/><path class="cls-3" d="M292.13,431.58l1.93.11,4.33,9.76c-2.45.5-4.42.29-4.24-2.95C294.29,435.94,291.19,434.35,292.13,431.58Z"/><path class="cls-4" d="M300,395c.41-2.28,2-3.41,4-4.07l.29.3c.12,2.81-1.86,3.53-4,4.05Z"/><path class="cls-4" d="M191,384.93c.19,2.29.67,4.48-3.18,3.44-1.76-.48-3.89.42-5.86.7A10.9,10.9,0,0,1,191,384.93Z"/><path class="cls-4" d="M360.78,427.51l-1.94.06c-.16-2.41.26-4.79-1.59-7-1.08-1.3-.95-3.63-.05-5.2s2.36.32,3.59,0c0,3.74.07,7.48.1,11.23A2.08,2.08,0,0,1,360.78,427.51Z"/><path class="cls-13" d="M360.89,426.62c0-3.75-.07-7.49-.1-11.23-.05-1.32-.11-2.65-.17-4l.24-2.14,1.75,2.25c.06,3.44.13,6.88.18,10.32C362.81,423.69,362.68,425.49,360.89,426.62Z"/><path class="cls-13" d="M352.89,441.34l-.15-3.66,2-.14,1.95,0-.12,1C355.05,439.14,355,441.65,352.89,441.34Z"/><path class="cls-2" d="M354.73,437.54l-2,.14c-6.4-15.32-19-22.59-34.26-26.48-5.46-1.4-10.83-3.2-16.24-4.81-1-1.06-2.11-2.05-3-3.19-1.38-1.69-1.72-3.24,1-4,.26,2.06,1.82,2.73,3.76,3.93V396.7c-1.67.69-2,2.72-3.75,2.53,0-1.31.07-2.62.11-3.93,2.17-.51,4.15-1.23,4-4,5-.06,8.53-3.13,12.1-6.07,3.81.59,8.41-2.24,11.1,3.38.76,1.59,4.94,1.33,6.54.35,3.84-2.35,7.19-.35,10.74,0l0,.06A4.24,4.24,0,0,0,348.9,393l0,0c.52,3.51,4.1,3.41,6.1,5.17l0-.1c-2.6,2.55-9,1.69-11.36-1.32-.85-1.1-.47-3.25-2.57-3.31-.75,0-1.15.58-1.28,1.3-.37,2,1,3.08,2.16,4.27a17.45,17.45,0,0,0,3.69,2.37c4.14,2.48,11.35,1.06,11.56,8.89,0,1.51,2.22,1,3.48,1.18.06,1.32.12,2.65.17,4-1.23.29-2.7-1.57-3.59,0s-1,3.9.05,5.2c1.85,2.22,1.43,4.6,1.59,7-.56,2.05-2.76,3.52-2.14,6C352,432.88,354.39,435.72,354.73,437.54Zm-.93-22.85a12.82,12.82,0,0,0,.39-8.49C352.12,409.63,352.73,412.15,353.8,414.69Zm-34.67-27.15-.36.84c.28.12.62.39.82.31s.26-.51.38-.79Z"/><path class="cls-4" d="M354.73,437.54c-.34-1.82-2.75-4.66,2-4,.11,1.12.23,2.25.35,3.38a.89.89,0,0,1-.37.65Z"/><path class="cls-4" d="M223.46,394.16c1.26,1.12,3.89.44,4,3a11,11,0,0,0-1.31.5c.52,2.07,1.06,4.94-1.71,4.73-2.05-.15-.75-3.41-1-5.27A18.78,18.78,0,0,1,223.46,394.16Z"/><path class="cls-4" d="M185.75,397.34c-.84-2.41-1.14-4.07-.06-5.53.39-.51,1.32-.17,1.7.45C188.59,394.24,187.54,395.56,185.75,397.34Z"/><path class="cls-4" d="M360.62,411.42c-1.26-.21-3.44.33-3.48-1.18-.21-7.83-7.42-6.41-11.56-8.89a17.45,17.45,0,0,1-3.69-2.37c-1.19-1.19-2.53-2.31-2.16-4.27.13-.72.53-1.32,1.28-1.3,2.1.06,1.72,2.21,2.57,3.31,2.32,3,8.76,3.87,11.36,1.32a16.3,16.3,0,0,1,5.92,11.24Z"/><path class="cls-4" d="M355,398.14c-2-1.76-5.58-1.66-6.1-5.17l1.85-1.1C352.35,393.8,355.15,395,355,398.14Z"/><path class="cls-4" d="M348.9,393a4.24,4.24,0,0,1-4.08-4.08C347.6,388.88,349.2,390,348.9,393Z"/><path class="cls-4" d="M300.22,399.23c1.72.19,2.08-1.84,3.75-2.53v6.47c-1.94-1.2-3.5-1.87-3.76-3.93Z"/><path class="cls-4" d="M353.8,414.69c-1.07-2.54-1.68-5.06.39-8.49A12.82,12.82,0,0,1,353.8,414.69Z"/><path class="cls-4" d="M319.13,387.54l.84.36c-.12.28-.18.72-.38.79s-.54-.19-.82-.31Z"/></svg>